<?xml version="1.0" encoding="UTF-8"?>
<svg id="Layer_2" data-name="Layer 2" xmlns="http://www.w3.org/2000/svg" viewBox="0 0 48.75 46.18">
  <defs>
    <style>
      .cls-1 {
        fill: #821a19;
      }
    </style>
  </defs>
  <g id="Layer_1-2" data-name="Layer 1">
    <g>
      <path class="cls-1" d="M10.26,46.18h25.65c5.67,0,10.26-4.59,10.26-10.26v-12.44c0-1.42-1.15-2.57-2.57-2.57s-2.57,1.15-2.57,2.57v12.44c0,2.83-2.3,5.13-5.13,5.13H10.26c-2.83,0-5.13-2.3-5.13-5.13V10.26c0-2.83,2.3-5.13,5.13-5.13h12.83c1.42,0,2.57-1.15,2.57-2.56s-1.15-2.57-2.57-2.57h-12.83C4.6,0,0,4.59,0,10.26v25.65c0,5.67,4.6,10.26,10.26,10.26"/>
      <path class="cls-1" d="M44.36,3.31l-21.27,21.29-8.44-8.47c-1.01-1.01-2.64-1.01-3.64,0-1.01,1.01-1.01,2.64,0,3.64l10.26,10.26c1,1.01,2.62,1.01,3.63.01h.02S48,6.95,48,6.95c1.01-1.01,1.01-2.64,0-3.64-1.01-1.01-2.64-1.01-3.64,0"/>
    </g>
  </g>
</svg>